<svg xmlns="http://www.w3.org/2000/svg" width="284" height="29" fill="none"><path fill="#2CD3FE" stroke="#2CD3FE" stroke-linecap="round" stroke-linejoin="round" stroke-width="2" d="M263.164 12.34c-.319-.278-.146-.78.286-.829l6.109-.684a.5.5 0 0 0 .402-.275l2.577-5.273c.182-.372.743-.372.925 0l2.577 5.273a.5.5 0 0 0 .401.275l6.11.684c.431.048.604.552.285.83l-4.517 3.942a.47.47 0 0 0-.153.446l1.199 5.695c.084.402-.369.714-.748.514l-5.368-2.837a.53.53 0 0 0-.496 0l-5.369 2.836c-.379.2-.833-.11-.749-.513l1.199-5.694a.46.46 0 0 0-.153-.447z"/><path fill="url(#a)" d="M48.84 14.273q0 2.76-.996 4.773-.997 2.01-2.736 3.102-1.74 1.09-3.972 1.09t-3.971-1.09-2.736-3.102q-.997-2.012-.997-4.773t.997-4.773q.998-2.01 2.736-3.102 1.739-1.091 3.971-1.091t3.972 1.09Q46.846 7.49 47.844 9.5q.996 2.01.997 4.773m-2.045 0q0-2.267-.758-3.827-.75-1.56-2.037-2.36-1.278-.802-2.864-.802-1.584 0-2.872.801-1.278.801-2.037 2.361-.75 1.56-.75 3.827t.75 3.826q.759 1.56 2.037 2.361 1.288.801 2.872.801 1.586 0 2.864-.8 1.287-.802 2.037-2.362.758-1.56.758-3.826m4.577-2.489V9.91h10.636v1.875h-4.295V23h-2.011V11.784zm12.752 7.875h2.148q.068.886.801 1.347.743.46 1.926.46 1.21 0 2.071-.494.861-.503.861-1.62a2 2 0 0 0-.324-1.142 2.13 2.13 0 0 0-.912-.767q-.588-.273-1.389-.273h-2.25v-1.806h2.25q1.201 0 1.773-.546.58-.546.58-1.364 0-.877-.623-1.406-.623-.537-1.764-.537-1.15 0-1.918.52-.766.511-.81 1.321h-2.113a3.2 3.2 0 0 1 .648-1.866q.614-.819 1.67-1.279 1.058-.468 2.42-.468 1.382 0 2.396.485 1.022.478 1.576 1.304.563.819.563 1.858 0 1.109-.622 1.79a3.44 3.44 0 0 1-1.56.972v.136q.741.051 1.287.477.555.418.86 1.1.308.674.308 1.491 0 1.194-.64 2.08-.639.878-1.755 1.364-1.117.477-2.549.477-1.389 0-2.488-.452-1.1-.46-1.747-1.27a3.16 3.16 0 0 1-.674-1.892m14.417-5.011h3.75q2.3 0 3.52 1.167 1.218 1.169 1.218 2.958 0 1.176-.545 2.139-.546.954-1.603 1.526-1.056.562-2.59.562H76.8V9.91h2.012v11.215h3.477q1.195 0 1.96-.63.768-.63.768-1.62 0-1.04-.767-1.696-.768-.656-1.96-.656h-3.75zM89.108 23V9.91h2.011V23zm5.693 0V9.91h5.352q2.114 0 3.358.954t1.244 2.522q0 1.193-.707 1.85-.708.648-1.815.878.724.102 1.406.511.69.41 1.142 1.125.452.707.452 1.739 0 1.006-.512 1.798-.511.792-1.466 1.253-.954.46-2.284.46zm1.909-1.84h4.261q1.04 0 1.628-.495t.588-1.347q0-1.014-.588-1.594-.588-.588-1.628-.588h-4.261zm0-5.762h3.443q.81 0 1.389-.222.58-.23.887-.648.315-.426.315-1.005 0-.826-.69-1.296-.691-.477-1.901-.477h-3.443zm13.306-.75h3.75q2.3 0 3.52 1.167 1.219 1.169 1.219 2.958 0 1.176-.546 2.139-.544.954-1.602 1.526-1.057.562-2.591.562h-5.489V9.91h2.012v11.215h3.477q1.194 0 1.96-.63a2 2 0 0 0 .767-1.62q0-1.04-.767-1.696-.766-.656-1.96-.656h-3.75zM120.585 23V9.91h2.012V23zm17.762.273q-1.841 0-3.171-.87t-2.045-2.394q-.716-1.527-.716-3.486 0-1.995.733-3.52.742-1.534 2.062-2.395 1.33-.87 3.102-.87 1.381 0 2.489.512 1.108.51 1.815 1.432.708.921.878 2.147h-2.011q-.23-.894-1.023-1.585-.784-.699-2.113-.698-1.176 0-2.063.613-.878.604-1.372 1.713-.486 1.1-.486 2.582 0 1.518.477 2.643.486 1.125 1.364 1.747.886.622 2.08.622.784 0 1.423-.273a2.9 2.9 0 0 0 1.082-.784q.444-.51.631-1.227h2.011a4.66 4.66 0 0 1-.843 2.088q-.666.92-1.765 1.466-1.09.537-2.539.537m17.667-17.728 4.219 13.262h.162l4.227-13.262h4.091L162.696 23h-4.756l-6.025-17.455zM170.814 23V5.545h3.69v7.697h.23l6.282-7.697h4.423l-6.477 7.816L185.516 23h-4.415l-4.781-7.176-1.816 2.216V23z"/><path fill="url(#b)" d="M226.79 23.239q-1.808 0-3.222-.665-1.406-.665-2.233-1.833t-.861-2.676h3.58a2.18 2.18 0 0 0 .852 1.645q.793.63 1.884.63.869 0 1.534-.383a2.74 2.74 0 0 0 1.048-1.082q.384-.699.384-1.602 0-.921-.392-1.62a2.77 2.77 0 0 0-1.066-1.09q-.681-.393-1.559-.401a3.7 3.7 0 0 0-1.492.315q-.715.315-1.116.861l-3.282-.588.827-9.205h10.671v3.018h-7.628l-.452 4.372h.102q.46-.648 1.39-1.074t2.079-.426q1.577 0 2.813.741a5.34 5.34 0 0 1 1.951 2.037q.716 1.287.708 2.966.008 1.765-.819 3.136-.817 1.364-2.292 2.148-1.466.776-3.409.776m10.687-.017a2 2 0 0 1-1.449-.597 2 2 0 0 1-.596-1.449q0-.835.596-1.432a2 2 0 0 1 1.449-.596q.819 0 1.432.596.614.597.614 1.432 0 .563-.29 1.031a2.2 2.2 0 0 1-.742.742 1.95 1.95 0 0 1-1.014.273m11.133.162q-2.199-.009-3.784-1.083-1.577-1.074-2.429-3.11-.844-2.038-.835-4.901 0-2.856.844-4.867.851-2.01 2.429-3.06 1.584-1.056 3.775-1.056t3.767 1.057q1.585 1.056 2.438 3.068.852 2.002.843 4.858 0 2.872-.852 4.909-.843 2.037-2.42 3.11-1.577 1.075-3.776 1.075m0-3.06q1.5 0 2.395-1.509t.886-4.525q0-1.986-.409-3.307-.4-1.32-1.142-1.986a2.5 2.5 0 0 0-1.73-.665q-1.492 0-2.386 1.492t-.904 4.466q0 2.01.401 3.358.41 1.338 1.15 2.011a2.52 2.52 0 0 0 1.739.665"/><path stroke="#000" stroke-linecap="round" stroke-linejoin="round" stroke-width="2" d="M1 15h20m0 0-8-7m8 7-8 7"/><defs><linearGradient id="a" x1="32" x2="282.5" y1="14.5" y2="15" gradientUnits="userSpaceOnUse"><stop offset=".389"/><stop offset="1" stop-color="#00CAFF"/></linearGradient><linearGradient id="b" x1="34.5" x2="280.5" y1="15" y2="15" gradientUnits="userSpaceOnUse"><stop offset=".389"/><stop offset="1" stop-color="#00CAFF"/></linearGradient></defs></svg>